<svg width="105" height="30" viewBox="0 0 105 30" fill="none" xmlns="http://www.w3.org/2000/svg">
<g clip-path="url(#clip0_2136_2358)">
<mask id="mask0_2136_2358" style="mask-type:luminance" maskUnits="userSpaceOnUse" x="0" y="0" width="105" height="30">
<path d="M105 0H0V29.8073H105V0Z" fill="white"/>
</mask>
<g mask="url(#mask0_2136_2358)">
<path d="M98.0367 12.5228H99.584L100.468 12.688L101.38 12.9907L102.264 13.4586L102.927 13.9815L103.591 14.6421L104.116 15.3577L104.53 16.1283L104.834 17.0366L105 17.8072L105.055 18.2201V19.8439L104.862 21.0274L104.558 21.9357L104.088 22.8164L103.563 23.477L103.204 23.8898L102.651 24.3577L101.933 24.8256L101.021 25.2384L99.9432 25.4861L99.5288 25.5412H98.2025L97.3182 25.376L96.4893 25.0733L95.8814 24.7155L95.4117 24.3026L95.3564 29.8072H90.9077V12.743H95.163L95.2182 13.8715L95.6327 13.4586L96.1853 13.1008L97.0143 12.743L97.6775 12.5779L98.0367 12.5228ZM97.7327 15.9907L97.1248 16.1008L96.5998 16.2935L96.1301 16.6513L95.7156 17.1192L95.3564 17.8348L95.2459 18.2476L95.1906 18.7155V19.321L95.3564 20.1467L95.6051 20.7522L95.9643 21.2201L96.434 21.6329L96.9867 21.8806L97.3459 21.9907H98.3682L98.9761 21.7981L99.5011 21.4953L99.9156 21.0825L100.275 20.477L100.468 19.7614L100.524 18.8531L100.413 18.0825L100.164 17.4219L99.8051 16.899L99.4735 16.5137L99.059 16.2659L98.4511 16.0733L97.7327 15.9907Z" fill="#126930"/>
<path d="M24.15 12.5228H25.6973L26.5263 12.688L27.3552 12.9907L27.9631 13.3485L28.3776 13.7063L28.4329 12.743H32.8815V25.2935H28.6815V24.11L28.2671 24.4678L27.8526 24.7705L27.0237 25.1834L26.3052 25.376L25.5868 25.4861H24.2605L23.3486 25.321L22.4092 25.0458L21.4421 24.5228L20.7236 23.9724L20.2539 23.5045L19.7289 22.8439L19.3697 22.2384L19.0658 21.4678L18.8171 20.5045L18.7065 19.6788V18.3026L18.8723 17.2292L19.121 16.3485L19.5355 15.4678L19.95 14.8623L20.6131 14.0916L21.3315 13.5412L22.1605 13.0733L22.9342 12.7705L23.8184 12.5779L24.15 12.5228ZM25.6973 15.9907L25.0894 16.1008L24.6197 16.2935L24.15 16.5962L23.7908 16.954L23.4315 17.5595L23.2381 18.2751V19.6513L23.4039 20.2568L23.7631 20.9173L24.2329 21.4403L24.8408 21.7981L25.3658 21.9632H26.3881L26.996 21.7705L27.521 21.4678L27.9355 21.0549L28.2947 20.4494L28.4881 19.7338L28.5434 19.321V18.6054L28.3776 17.8348L28.1842 17.3669L27.8802 16.899L27.6315 16.6513L27.1618 16.2935L26.6368 16.1008L26.0289 15.9907H25.6973Z" fill="#126930"/>
<path d="M53.7712 12.5228H55.512L56.4791 12.688L57.3633 12.9357L58.2752 13.3485L58.8278 13.7063L59.3528 14.1192L59.7673 14.477L60.3199 15.1926L60.7344 15.8531L61.0383 16.5687L61.287 17.532L61.3975 18.3577V19.6237L61.3423 20.0916L61.287 20.1467H52.1686L52.5831 20.9724L52.9975 21.4403L53.5225 21.743L53.9923 21.9357L54.766 22.1008H55.8436L56.6173 21.9357L57.2252 21.688L57.9436 21.2201L58.137 21.0549H58.2475V21.165L58.441 21.2751L58.8002 21.688L59.712 22.5962L60.0712 23.0091L60.4857 23.4219L60.3752 23.6146L59.9607 24.0274L59.2423 24.5503L58.4133 24.9632L57.5291 25.2659L56.4515 25.4586L55.8988 25.5137H54.2686L53.1357 25.3485L52.1686 25.1008L51.2844 24.743L50.4554 24.2751L49.7923 23.7522L49.0186 22.9815L48.5488 22.321L48.1344 21.5504L47.8304 20.6421L47.6646 19.7614L47.6094 18.8806L47.7199 17.7522L47.9133 16.8715L48.3278 15.9081L48.7423 15.2476L49.1567 14.7247L49.516 14.3118L50.0686 13.8439L50.8423 13.321L51.7265 12.9081L52.7488 12.6054L53.7712 12.5228ZM54.3515 15.6329L53.6883 15.7981L53.1633 16.0458L52.6936 16.4586L52.3344 17.0091L52.141 17.5595V17.7522H57.2804L57.1146 17.1467L56.8107 16.5962L56.341 16.1283L55.816 15.8256L54.987 15.6329H54.3515Z" fill="#126930"/>
<path d="M35.2303 12.743H46.4488V15.3577L45.979 15.9082L45.4264 16.5137L44.9566 17.0641L44.404 17.6696L43.9343 18.2201L43.3816 18.8256L42.9119 19.3761L42.3593 19.9816L41.8895 20.532L41.3369 21.1375L40.8672 21.688L40.7014 21.8531L46.6422 21.9082L46.6974 22.0183V25.2935H35.0645L35.0093 25.2385V22.6788L35.479 22.1559L35.9488 21.6054L36.5014 20.9999L36.9711 20.4495L37.5238 19.844L37.9935 19.2935L38.5461 18.688L39.0159 18.1375L39.5685 17.532L40.0382 16.9816L40.5909 16.3761L40.7843 16.1284L35.2027 16.0733L35.1474 15.7155L35.2303 12.743Z" fill="#126930"/>
<path d="M11.8538 9.05493H16.4683V25.2935H11.8538V18.9632H4.80778L4.61436 18.4403L4.31041 17.1742L4.14462 16.2109L4.08936 15.1375H11.8262V9.05493H11.8538Z" fill="#126930"/>
<path d="M63.4146 9.93567H67.8356L67.8909 13.1559L70.7093 13.2109V16.5137H67.8356L67.8909 20.6421L68.0014 21.3026L68.3053 21.7705L68.6646 21.9632L68.858 22.0182H69.5764L70.2395 21.8256L70.4053 21.7155H70.5711L71.5935 24.6329V24.8256L70.9856 25.1283L70.2672 25.321L69.2448 25.4861H67.7527L66.7856 25.321L65.8738 25.0182L65.1553 24.6054L64.6303 24.1375L64.2159 23.6696L63.8567 23.0641L63.608 22.2935L63.4422 21.3852V9.93567H63.4146Z" fill="#126930"/>
<path d="M80.9054 12.5228H81.7896V16.4586H80.408L79.5791 16.6237L79.1094 16.8164L78.5567 17.1742L78.1975 17.6421L77.9488 18.1926L77.783 19.0182L77.7278 25.2935H73.3067L73.2515 25.2384V12.7705L73.3067 12.7155H77.5067L77.562 14.0916L78.087 13.5687L78.8054 13.1008L79.6344 12.743L80.5462 12.5503L80.9054 12.5228Z" fill="#126930"/>
<path d="M15.3355 2.5321H15.5842L15.4184 2.6422L13.7882 3.16513L12.4618 3.68807L11.1908 4.23853L10.0579 4.78899L8.925 5.44954L8.09605 5.99999L7.21184 6.66055L6.65921 7.18348L6.24474 7.54128L5.88553 7.89908L4.97368 9L4.36579 9.9633L3.95132 10.7339L3.53684 11.7523L3.23289 12.9358L3.06711 13.8991V15.9908L3.26053 17.367L3.61974 18.6881L3.97895 19.7064L4.50395 20.8899L5.02895 21.9083L5.55395 22.789L6.27237 23.9174L6.88026 24.7431L7.23947 25.2661V25.3211H2.04474L1.49211 24.055L0.967105 22.6238L0.552632 21.2477L0.248684 19.8716L0.0552632 18.4404L0 17.8899V15.633L0.193421 14.1468L0.497368 12.8807L0.856579 11.8073L1.38158 10.6789L1.90658 9.79816L2.45921 8.97247L2.92895 8.42201L3.48158 7.81651L4.31053 6.99082L4.86316 6.52293L5.83026 5.80733L7.10132 5.03669L8.53816 4.3211L9.975 3.77064L11.5776 3.2477L13.0145 2.8899L14.9763 2.5321H15.3355Z" fill="#0C3410"/>
<path d="M83.5581 12.743H87.9792V25.2935H83.5581V12.743Z" fill="#126930"/>
<path d="M12.8213 0.0274658L13.291 0.0825117L19.6463 1.15591L20.1989 1.266L20.0884 1.45866L19.37 2.00912L18.541 2.66967L17.8226 3.22013L16.9937 3.88068L16.2752 4.43114L15.4463 5.09169L14.6173 5.77976L14.2029 6.13756V5.97242L14.866 4.84398L15.7502 3.41279L16.4134 2.33939L16.1647 2.14673L14.2029 0.9082L13.07 0.192603L12.8213 0.0274658Z" fill="#69AF08"/>
<path d="M85.4645 6.9082H86.0724L86.625 7.07334L87.0948 7.32105L87.454 7.6238L87.8132 8.17426L87.979 8.64215L88.0342 9.3027L87.8684 9.96325L87.5092 10.5688L87.0395 10.9816L86.5145 11.2293L86.0447 11.3394H85.4369L84.7737 11.1467L84.304 10.844L83.9447 10.4862L83.6961 10.0183L83.5303 9.55041V8.66967L83.7237 8.11921L84.0276 7.65132L84.3869 7.29352L84.9948 6.99077L85.4645 6.9082ZM85.6303 7.48618L85.1605 7.59628L84.6908 7.89903L84.3316 8.31187L84.1382 8.83481V9.49536L84.3869 10.1009L84.8013 10.5137L85.3263 10.7614L85.9895 10.8165L86.5145 10.6513L86.9842 10.3486L87.2882 9.93573L87.454 9.52288V8.75224L87.2605 8.28435L86.9566 7.87151L86.4316 7.56875L86.0171 7.45866H85.6303V7.48618Z" fill="#69AF08"/>
</g>
</g>
<defs>
<clipPath id="clip0_2136_2358">
<rect width="105" height="30" fill="white"/>
</clipPath>
</defs>
</svg>
